<mxfile host="app.diagrams.net" modified="2024-06-24T02:53:22.546Z" agent="Mozilla/5.0 (Windows NT 10.0; Win64; x64) AppleWebKit/537.36 (KHTML, like Gecko) Chrome/126.0.0.0 Safari/537.36" version="24.6.0" etag="kWnI1RPtTvEN1XR20ge5" type="github">
  <diagram name="第 1 页" id="e6EZKE9hmKRionfUaL3v">
    <mxGraphModel>
      <root>
        <mxCell id="0" />
        <mxCell id="1" parent="0" />
      </root>
    </mxGraphModel>
  </diagram>
</mxfile>
